#!OML:ASF F:\VICON\USERDATA\INSTALL\Justin_Nancy\Justin_Nancy.ASF
:FULLY-SPECIFIED
:DEGREES
292
root -8.77709 17.635 4.57158 -1.12328 37.9823 -3.49446
lowerback 7.28621 -0.566664 0.877318
upperback 0.0799308 -0.551598 2.75777
thorax -3.98734 -0.258128 2.42281
lowerneck -15.6877 -3.7298 -8.12603
upperneck 22.53 -3.58828 2.47123
head 9.96684 -2.0384 1.75436
rclavicle -1.36167e-014 -4.37326e-015
rhumerus -33.4951 -13.575 -78.5438
rradius 28.7412
rwrist 7.8687
rhand -13.7806 8.87912
rfingers 7.12502
rthumb 12.3406 -20.7367
lclavicle -1.36167e-014 -4.37326e-015
lhumerus -27.11 1.46155 91.6399
lradius 33.664
lwrist -4.49195
lhand -17.9371 26.0456
lfingers 7.12502
lthumb 8.33103 55.8613
rfemur -11.5966 3.36546 18.3584
rtibia 23.5713
rfoot -9.79217 3.78514
rtoes -12.8637
lfemur -15.949 -7.00859 -18.3691
ltibia 54.3687
lfoot -5.10772 -10.1947
ltoes -9.1045
293
root -8.7835 17.5977 4.66448 -1.17842 39.27 -3.69227
lowerback 7.40738 -0.358011 0.94875
upperback 0.0457349 -0.260777 2.79239
thorax -4.10148 -0.113914 2.38964
lowerneck -16.0479 -4.0074 -8.73029
upperneck 22.9482 -3.90201 2.96026
head 10.2298 -2.17931 1.98177
rclavicle -8.55768e-014 1.63003e-014
rhumerus -33.2451 -12.9262 -78.547
rradius 28.3969
rwrist 7.74743
rhand -13.6226 8.71855
rfingers 7.12502
rthumb 12.4929 -20.888
lclavicle -8.55768e-014 1.63003e-014
lhumerus -26.8619 2.20509 91.5494
lradius 32.7977
lwrist -5.22497
lhand -16.7947 25.0558
lfingers 7.12502
lthumb 9.43345 54.8247
rfemur -10.9204 3.64282 18.5322
rtibia 22.8599
rfoot -9.3147 2.72912
rtoes -7.28844
lfemur -17.2587 -6.39499 -18.0774
ltibia 55.4349
lfoot -5.25146 -7.3659
ltoes -6.19253
294
root -8.78734 17.6013 4.76672 -1.51457 40.4569 -4.06806
lowerback 7.5857 -0.0848271 1.05804
upperback 0.0844074 0.118073 2.79879
thorax -4.17437 0.0725065 2.29448
lowerneck -16.3304 -4.20123 -8.94025
upperneck 23.3753 -4.16517 3.26453
head 10.4684 -2.28334 2.08721
rclavicle -3.38928e-014 2.06736e-014
rhumerus -33.377 -12.9738 -78.5179
rradius 28.5858
rwrist 7.90459
rhand -13.1074 8.33715
rfingers 7.12502
rthumb 12.9896 -21.2385
lclavicle -3.38928e-014 2.06736e-014
lhumerus -26.8168 2.27944 91.3864
lradius 32.331
lwrist -5.54545
lhand -16.1223 24.1448
lfingers 7.12502
lthumb 10.0821 53.8833
rfemur -10.3427 3.68292 19.0421
rtibia 22.3945
rfoot -9.14063 1.62288
rtoes -4.55345
lfemur -18.1421 -5.77387 -17.6583
ltibia 56.0717
lfoot -5.88069 -5.03221
ltoes -3.60632
295
root -8.7884 17.6177 4.87287 -2.04362 41.7726 -4.58479
lowerback 7.77212 -0.0101065 1.26578
upperback 0.237303 0.239933 2.81954
thorax -4.12339 0.129542 2.18523
lowerneck -16.5754 -4.1125 -8.74797
upperneck 23.3946 -4.07498 3.29318
head 10.5106 -2.21838 2.07606
rclavicle 2.55438e-014 -2.0276e-014
rhumerus -33.2098 -12.5271 -78.89
rradius 28.7084
rwrist 7.4688
rhand -13.0629 8.1112
rfingers 7.12502
rthumb 13.0326 -21.4617
lclavicle 2.55438e-014 -2.0276e-014
lhumerus -26.7967 2.0659 91.1416
lradius 32.366
lwrist -5.26208
lhand -15.5805 23.9405
lfingers 7.12502
lthumb 10.6049 53.653
rfemur -9.42238 3.33809 19.7572
rtibia 21.8078
rfoot -9.12229 0.472229
rtoes -5.6136
lfemur -18.7893 -5.05291 -17.1074
ltibia 56.5318
lfoot -6.82984 -3.40542
ltoes -0.591542
296
root -8.78775 17.6293 4.97895 -2.18137 43.4788 -4.39994
lowerback 8.09516 -0.138983 0.863329
upperback 0.391783 0.0430918 2.91971
thorax -4.13866 0.0411645 2.53988
lowerneck -16.7992 -3.96393 -9.02289
upperneck 23.33 -3.75929 3.28385
head 10.5157 -2.09573 2.16091
rclavicle 2.96686e-014 6.75868e-015
rhumerus -32.7464 -11.6114 -79.0126
rradius 28.6814
rwrist 7.1461
rhand -13.245 8.07348
rfingers 7.12502
rthumb 12.857 -21.5105
lclavicle 2.96686e-014 6.75868e-015
lhumerus -26.6056 2.61011 91.0821
lradius 32.1726
lwrist -5.38431
lhand -14.864 24.732
lfingers 7.12502
lthumb 11.2959 54.4078
rfemur -8.4337 2.83493 19.8741
rtibia 21.6285
rfoot -9.4023 -0.834377
rtoes -6.9817
lfemur -19.2057 -4.61994 -17.1917
ltibia 56.5651
lfoot -7.72383 -2.12855
ltoes 1.6808
297
root -8.78295 17.6424 5.08948 -1.79796 45.1066 -3.78314
lowerback 8.14171 -0.0821356 0.143362
upperback 0.358562 0.0539896 2.92882
thorax -4.2003 0.0606589 2.95571
lowerneck -16.3358 -3.89056 -9.14605
upperneck 23.1136 -3.64794 3.24069
head 10.3435 -2.05898 2.18569
rclavicle 2.7482e-014 3.18055e-014
rhumerus -32.935 -11.5436 -78.5998
rradius 28.9618
rwrist 7.78312
rhand -12.9256 7.90072
rfingers 7.12502
rthumb 13.1649 -21.6637
lclavicle 2.7482e-014 3.18055e-014
lhumerus -26.6437 2.99902 91.0893
lradius 31.6946
lwrist -5.99404
lhand -14.8098 24.8901
lfingers 7.12502
lthumb 11.3482 54.5631
rfemur -7.73091 2.44422 19.6641
rtibia 21.5953
rfoot -9.6213 -2.27908
rtoes -7.54322
lfemur -19.7956 -4.15158 -17.6581
ltibia 56.2918
lfoot -8.8406 -1.32569
ltoes 2.88421
298
root -8.76499 17.6485 5.18757 -1.80983 46.6976 -4.20147
lowerback 7.79732 0.0573002 0.443929
upperback 0.188067 0.263916 2.91443
thorax -4.19357 0.159598 2.74566
lowerneck -15.6519 -3.95408 -8.85931
upperneck 22.9056 -3.86529 3.20758
head 10.1446 -2.1373 2.10299
rclavicle -4.17448e-014 1.19271e-014
rhumerus -33.5616 -11.9777 -78.2977
rradius 29.3678
rwrist 8.74823
rhand -12.8076 7.87437
rfingers 7.12502
rthumb 13.2786 -21.6826
lclavicle -4.17448e-014 1.19271e-014
lhumerus -26.9514 2.55504 90.9795
lradius 31.4649
lwrist -6.33122
lhand -15.0829 24.0074
lfingers 7.12502
lthumb 11.0848 53.6946
rfemur -7.39273 1.59464 20.2124
rtibia 21.5633
rfoot -9.73238 -3.40742
rtoes -10.0431
lfemur -20.9243 -3.58653 -17.4196
ltibia 55.9143
lfoot -9.66638 -0.631781
ltoes 2.24847
299
root -8.75396 17.6477 5.28421 -2.06964 48.3429 -4.77769
lowerback 7.7572 0.160053 0.88563
upperback 0.00397631 0.440085 2.81373
thorax -4.36634 0.237998 2.37231
lowerneck -15.3701 -4.0814 -8.73039
upperneck 23.0778 -4.15185 3.41701
head 10.1725 -2.23478 2.12192
rclavicle -1.55549e-014 -6.75868e-015
rhumerus -34.0519 -12.1127 -78.3117
rradius 29.4659
rwrist 9.40055
rhand -13.7514 8.2801
rfingers 7.12502
rthumb 12.3688 -21.334
lclavicle -1.55549e-014 -6.75868e-015
lhumerus -27.369 2.01582 90.6511
lradius 31.4001
lwrist -6.14796
lhand -14.8972 22.3474
lfingers 7.12502
lthumb 11.2639 52.025
rfemur -7.00424 0.932544 20.8324
rtibia 21.3998
rfoot -9.60617 -4.47084
rtoes -10.3945
lfemur -22.0313 -2.98895 -17.0897
ltibia 55.5571
lfoot -10.0832 0.14454
ltoes 2.34874
300
root -8.75203 17.6461 5.40392 -2.7098 49.7985 -5.44872
lowerback 8.05507 0.29152 1.0728
upperback -0.0593105 0.647565 2.87682
thorax -4.60617 0.338756 2.309
lowerneck -15.473 -4.17468 -8.90185
upperneck 23.4162 -4.27941 3.63751
head 10.333 -2.2823 2.21298
rclavicle 8.09054e-014 -3.29983e-014
rhumerus -34.1806 -11.9365 -78.3319
rradius 29.3012
rwrist 9.93388
rhand -14.7828 8.85994
rfingers 7.12502
rthumb 11.3743 -20.8116
lclavicle 8.09054e-014 -3.29983e-014
lhumerus -27.6076 2.05249 90.4888
lradius 31.2396
lwrist -5.91148
lhand -15.203 21.3935
lfingers 7.12502
lthumb 10.969 51.087
rfemur -6.27931 1.23917 21.576
rtibia 21.1559
rfoot -9.79469 -5.86424
rtoes -7.09395
lfemur -22.7291 -2.43646 -16.6208
ltibia 55.2341
lfoot -10.6697 0.465306
ltoes 4.84369
301
root -8.75408 17.6304 5.52622 -4.29363 51.2555 -7.08569
lowerback 8.3383 0.339604 1.65342
upperback 0.125191 0.793794 3.20947
thorax -4.57583 0.404868 2.31014
lowerneck -15.8343 -4.28144 -9.05196
upperneck 23.6215 -4.38176 3.75118
head 10.4916 -2.32614 2.26128
rclavicle -1.11369e-013 -7.55382e-015
rhumerus -33.959 -11.6203 -78.4037
rradius 29.226
rwrist 10.348
rhand -15.5376 9.20813
rfingers 7.12502
rthumb 10.6462 -20.5022
lclavicle -1.11369e-013 -7.55382e-015
lhumerus -27.601 1.32759 90.709
lradius 31.4777
lwrist -4.49058
lhand -16.4791 23.4513
lfingers 7.12502
lthumb 9.73794 53.2062
rfemur -5.35017 1.2561 23.0338
rtibia 21.132
rfoot -10.2194 -7.23082
rtoes -6.97652
lfemur -23.3098 -1.77053 -15.5022
ltibia 54.7905
lfoot -11.1997 0.187508
ltoes 5.75852
302
root -8.74242 17.6209 5.62121 -4.80114 53.1807 -7.6823
lowerback 8.3657 0.243515 1.86413
upperback 0.173568 0.688092 3.21875
thorax -4.5355 0.348983 2.21364
lowerneck -15.9736 -4.36915 -9.02678
upperneck 23.7044 -4.53103 3.8857
head 10.5617 -2.37392 2.28328
rclavicle -2.1916e-014 2.78299e-015
rhumerus -33.9187 -11.5125 -78.4577
rradius 29.514
rwrist 10.8082
rhand -15.7747 9.09759
rfingers 7.12502
rthumb 10.4175 -20.6243
lclavicle -2.1916e-014 2.78299e-015
lhumerus -27.6844 0.675793 90.684
lradius 31.7077
lwrist -3.21452
lhand -17.8126 25.5538
lfingers 7.12502
lthumb 8.45119 55.3647
rfemur -4.77594 0.633634 23.5476
rtibia 21.1815
rfoot -10.3397 -8.30916
rtoes -8.6545
lfemur -24.2204 -1.37473 -15.4775
ltibia 54.0723
lfoot -11.5594 0.17086
ltoes 3.79042
303
root -8.70838 17.6359 5.70007 -3.32339 55.1631 -6.27162
lowerback 8.05909 0.136697 1.21575
upperback 0.0667143 0.451543 2.8253
thorax -4.46894 0.238737 2.1971
lowerneck -16.1176 -4.32789 -8.91091
upperneck 23.9424 -4.49938 3.93058
head 10.6716 -2.34155 2.28565
rclavicle -1.6201e-014 -2.3059e-014
rhumerus -34.0379 -11.7882 -78.3074
rradius 29.9439
rwrist 12.1083
rhand -15.066 9.07947
rfingers 7.12502
rthumb 11.1011 -20.6069
lclavicle -1.6201e-014 -2.3059e-014
lhumerus -27.628 1.39252 90.0783
lradius 31.3442
lwrist -3.42565
lhand -17.5271 24.5663
lfingers 7.12502
lthumb 8.72674 54.3659
rfemur -4.76266 0.35685 22.6389
rtibia 21.1638
rfoot -10.2548 -9.34411
rtoes -8.15022
lfemur -25.298 -0.852733 -17.0418
ltibia 53.1084
lfoot -12.039 0.509431
ltoes -0.599742
304
root -8.66915 17.643 5.78622 -3.50493 56.8162 -6.51111
lowerback 7.90722 0.00240635 1.43358
upperback 0.150426 0.284364 2.77935
thorax -4.29007 0.151095 2.04482
lowerneck -16.1103 -4.17902 -8.81762
upperneck 23.8224 -4.29976 3.89065
head 10.6075 -2.24433 2.28404
rclavicle 1.14003e-013 2.26615e-014
rhumerus -33.8523 -10.8218 -78.5518
rradius 30.3245
rwrist 11.4966
rhand -15.0521 8.95955
rfingers 7.12502
rthumb 11.1145 -20.7261
lclavicle 1.14003e-013 2.26615e-014
lhumerus -27.4663 2.51059 89.4821
lradius 30.9492
lwrist -4.16727
lhand -16.6655 22.8474
lfingers 7.12502
lthumb 9.55807 52.6106
rfemur -4.57909 -0.0951027 22.7947
rtibia 21.4669
rfoot -10.4844 -9.80715
rtoes -8.45811
lfemur -25.9694 -0.00359675 -17.4675
ltibia 52.0975
lfoot -12.4995 0.481415
ltoes -4.89656
305
root -8.64448 17.6258 5.86081 -6.07951 58.2108 -9.51429
lowerback 7.95802 -0.190458 3.08914
upperback 0.264607 0.211411 3.25182
thorax -4.19627 0.0929159 1.61346
lowerneck -16.4178 -4.10767 -9.19465
upperneck 23.9553 -4.07455 3.94389
head 10.7117 -2.16622 2.39666
rclavicle 2.78299e-014 3.57812e-015
rhumerus -33.515 -9.02627 -78.9666
rradius 30.5698
rwrist 9.58052
rhand -15.9449 9.09266
rfingers 7.12502
rthumb 10.2533 -20.6374
lclavicle 2.78299e-014 3.57812e-015
lhumerus -27.4215 2.87081 89.394
lradius 30.9855
lwrist -3.98771
lhand -16.7991 23.2075
lfingers 7.12502
lthumb 9.42914 52.9766
rfemur -4.00645 -0.427342 24.4832
rtibia 21.4533
rfoot -11.1282 -9.7715
rtoes -5.79565
lfemur -26.8038 0.369764 -16.1728
ltibia 51.3493
lfoot -12.93 0.322968
ltoes -4.58407
306
root -8.62118 17.6176 5.90009 -5.19407 59.6204 -9.11341
lowerback 7.73818 -0.154083 3.20039
upperback 0.0686493 0.257048 3.10028
thorax -4.27579 0.109065 1.38857
lowerneck -16.6524 -4.201 -9.63263
upperneck 24.2106 -4.10907 4.14961
head 10.8716 -2.19559 2.54002
rclavicle -1.68967e-015 -1.47101e-014
rhumerus -33.6145 -8.11321 -79.2143
rradius 31.007
rwrist 8.15666
rhand -16.6645 9.25082
rfingers 7.12502
rthumb 9.5591 -20.5123
lclavicle -1.68967e-015 -1.47101e-014
lhumerus -27.5094 2.96925 89.2481
lradius 30.9281
lwrist -4.18814
lhand -17.4154 24.9927
lfingers 7.12502
lthumb 8.83452 54.7877
rfemur -3.88624 -0.529713 23.9489
rtibia 21.0722
rfoot -11.9417 -9.33091
rtoes -0.709245
lfemur -28.1452 -0.23212 -17.0375
ltibia 50.5772
lfoot -13.6154 1.17843
ltoes -4.01452
